<mxfile host="app.diagrams.net" agent="Mozilla/5.0 (Windows NT 10.0; Win64; x64) AppleWebKit/537.36 (KHTML, like Gecko) Chrome/128.0.0.0 YaBrowser/24.10.0.0 Safari/537.36" version="25.0.1">
  <diagram name="Page-1" id="zirWmegnHVaOnKoYE1S3">
    <mxGraphModel dx="2465" dy="872" grid="1" gridSize="10" guides="1" tooltips="1" connect="1" arrows="1" fold="1" page="1" pageScale="1" pageWidth="850" pageHeight="1100" math="0" shadow="0">
      <root>
        <mxCell id="0" />
        <mxCell id="1" parent="0" />
        <mxCell id="P8x03T3BTSU4HdCrfRKm-31" value="" style="rounded=0;whiteSpace=wrap;html=1;fillColor=none;dashed=1;strokeColor=#ff0000;strokeWidth=3;" parent="1" vertex="1">
          <mxGeometry x="-160" y="280" width="280" height="80" as="geometry" />
        </mxCell>
        <mxCell id="P8x03T3BTSU4HdCrfRKm-30" value="" style="rounded=0;whiteSpace=wrap;html=1;fillColor=none;dashed=1;strokeColor=#ff0000;strokeWidth=3;" parent="1" vertex="1">
          <mxGeometry x="-160" y="380" width="280" height="80" as="geometry" />
        </mxCell>
        <mxCell id="P8x03T3BTSU4HdCrfRKm-33" value="" style="rounded=0;whiteSpace=wrap;html=1;fillColor=none;dashed=1;strokeColor=#ff0000;strokeWidth=3;" parent="1" vertex="1">
          <mxGeometry x="-160" y="520" width="280" height="80" as="geometry" />
        </mxCell>
        <mxCell id="P8x03T3BTSU4HdCrfRKm-37" value="" style="rounded=0;whiteSpace=wrap;html=1;fillColor=none;dashed=1;strokeColor=#ff0000;strokeWidth=3;" parent="1" vertex="1">
          <mxGeometry x="400" y="230" width="100" height="100" as="geometry" />
        </mxCell>
        <mxCell id="P8x03T3BTSU4HdCrfRKm-27" value="" style="rounded=0;whiteSpace=wrap;html=1;fillColor=none;dashed=1;strokeColor=#ff0000;strokeWidth=3;" parent="1" vertex="1">
          <mxGeometry x="200" y="230" width="140" height="180" as="geometry" />
        </mxCell>
        <mxCell id="P8x03T3BTSU4HdCrfRKm-29" value="" style="rounded=0;whiteSpace=wrap;html=1;fillColor=none;dashed=1;strokeColor=#ff0000;strokeWidth=3;" parent="1" vertex="1">
          <mxGeometry x="210" y="430" width="140" height="80" as="geometry" />
        </mxCell>
        <mxCell id="P8x03T3BTSU4HdCrfRKm-28" value="" style="rounded=0;whiteSpace=wrap;html=1;fillColor=none;dashed=1;strokeColor=#ff0000;strokeWidth=3;glass=1;" parent="1" vertex="1">
          <mxGeometry x="380" y="430" width="140" height="80" as="geometry" />
        </mxCell>
        <mxCell id="P8x03T3BTSU4HdCrfRKm-12" style="edgeStyle=orthogonalEdgeStyle;rounded=0;orthogonalLoop=1;jettySize=auto;html=1;entryX=1;entryY=0.5;entryDx=0;entryDy=0;curved=1;" parent="1" source="P8x03T3BTSU4HdCrfRKm-1" target="P8x03T3BTSU4HdCrfRKm-2" edge="1">
          <mxGeometry relative="1" as="geometry" />
        </mxCell>
        <mxCell id="P8x03T3BTSU4HdCrfRKm-13" style="edgeStyle=orthogonalEdgeStyle;rounded=0;orthogonalLoop=1;jettySize=auto;html=1;entryX=1;entryY=0.5;entryDx=0;entryDy=0;curved=1;" parent="1" source="P8x03T3BTSU4HdCrfRKm-1" target="P8x03T3BTSU4HdCrfRKm-7" edge="1">
          <mxGeometry relative="1" as="geometry" />
        </mxCell>
        <mxCell id="P8x03T3BTSU4HdCrfRKm-15" style="edgeStyle=orthogonalEdgeStyle;rounded=0;orthogonalLoop=1;jettySize=auto;html=1;entryX=1;entryY=0.5;entryDx=0;entryDy=0;curved=1;" parent="1" source="P8x03T3BTSU4HdCrfRKm-1" target="P8x03T3BTSU4HdCrfRKm-8" edge="1">
          <mxGeometry relative="1" as="geometry" />
        </mxCell>
        <mxCell id="P8x03T3BTSU4HdCrfRKm-1" value="GateWay" style="shape=hexagon;perimeter=hexagonPerimeter2;whiteSpace=wrap;html=1;fixedSize=1;fillColor=#f8cecc;strokeColor=#b85450;" parent="1" vertex="1">
          <mxGeometry x="220" y="440" width="110" height="60" as="geometry" />
        </mxCell>
        <mxCell id="P8x03T3BTSU4HdCrfRKm-2" value="User management&lt;br&gt;service&lt;span style=&quot;color: rgba(0, 0, 0, 0); font-family: monospace; font-size: 0px; text-align: start; text-wrap-mode: nowrap;&quot;&gt;%3CmxGraphModel%3E%3Croot%3E%3CmxCell%20id%3D%220%22%2F%3E%3CmxCell%20id%3D%221%22%20parent%3D%220%22%2F%3E%3CmxCell%20id%3D%222%22%20value%3D%22%D0%94%D0%B0%D0%BD%D0%B8%D0%B8%D0%BB%22%20style%3D%22rounded%3D0%3BwhiteSpace%3Dwrap%3Bhtml%3D1%3BfillColor%3D%23f8cecc%3BstrokeColor%3D%23b85450%3B%22%20vertex%3D%221%22%20parent%3D%221%22%3E%3CmxGeometry%20x%3D%22830%22%20y%3D%22850%22%20width%3D%22120%22%20height%3D%2260%22%20as%3D%22geometry%22%2F%3E%3C%2FmxCell%3E%3CmxCell%20id%3D%223%22%20value%3D%22%D0%A1%D0%B0%D1%80%D0%B2%D0%B0%D1%80%22%20style%3D%22rounded%3D0%3BwhiteSpace%3Dwrap%3Bhtml%3D1%3BfillColor%3D%23ffe6cc%3BstrokeColor%3D%23d79b00%3B%22%20vertex%3D%221%22%20parent%3D%221%22%3E%3CmxGeometry%20x%3D%22670%22%20y%3D%22930%22%20width%3D%22120%22%20height%3D%2260%22%20as%3D%22geometry%22%2F%3E%3C%2FmxCell%3E%3CmxCell%20id%3D%224%22%20value%3D%22%D0%93%D0%B5%D0%BE%D1%80%D0%B3%D0%B8%D0%B9%22%20style%3D%22rounded%3D0%3BwhiteSpace%3Dwrap%3Bhtml%3D1%3BfillColor%3D%23d5e8d4%3BstrokeColor%3D%2382b366%3B%22%20vertex%3D%221%22%20parent%3D%221%22%3E%3CmxGeometry%20x%3D%22830%22%20y%3D%22930%22%20width%3D%22120%22%20height%3D%2260%22%20as%3D%22geometry%22%2F%3E%3C%2FmxCell%3E%3CmxCell%20id%3D%225%22%20value%3D%22%D0%BD%D0%B5%D1%80%D0%B0%D1%81%D0%BF%D1%80%D0%B5%D0%B4%D0%B5%D0%BB%D0%B5%D0%BD%D0%BD%D0%BE%D0%B5%22%20style%3D%22rounded%3D0%3BwhiteSpace%3Dwrap%3Bhtml%3D1%3BfillColor%3D%23dae8fc%3BstrokeColor%3D%236c8ebf%3B%22%20vertex%3D%221%22%20parent%3D%221%22%3E%3CmxGeometry%20x%3D%22670%22%20y%3D%22850%22%20width%3D%22120%22%20height%3D%2260%22%20as%3D%22geometry%22%2F%3E%3C%2FmxCell%3E%3C%2Froot%3E%3C%2FmxGraphModel%3E&lt;/span&gt;" style="rounded=1;whiteSpace=wrap;html=1;fillColor=#dae8fc;strokeColor=#6c8ebf;" parent="1" vertex="1">
          <mxGeometry x="-10" y="290" width="120" height="60" as="geometry" />
        </mxCell>
        <mxCell id="P8x03T3BTSU4HdCrfRKm-3" value="Гаджи" style="rounded=0;whiteSpace=wrap;html=1;fillColor=#f8cecc;strokeColor=#b85450;" parent="1" vertex="1">
          <mxGeometry x="740" y="90" width="120" height="60" as="geometry" />
        </mxCell>
        <mxCell id="P8x03T3BTSU4HdCrfRKm-4" value="Роберт" style="rounded=0;whiteSpace=wrap;html=1;fillColor=#ffe6cc;strokeColor=#d79b00;" parent="1" vertex="1">
          <mxGeometry x="740" y="170" width="120" height="60" as="geometry" />
        </mxCell>
        <mxCell id="P8x03T3BTSU4HdCrfRKm-5" value="Георгий" style="rounded=0;whiteSpace=wrap;html=1;fillColor=#d5e8d4;strokeColor=#82b366;" parent="1" vertex="1">
          <mxGeometry x="570" y="180" width="120" height="60" as="geometry" />
        </mxCell>
        <mxCell id="P8x03T3BTSU4HdCrfRKm-6" value="нераспределенное" style="rounded=0;whiteSpace=wrap;html=1;fillColor=#dae8fc;strokeColor=#6c8ebf;" parent="1" vertex="1">
          <mxGeometry x="570" y="90" width="120" height="60" as="geometry" />
        </mxCell>
        <mxCell id="P8x03T3BTSU4HdCrfRKm-7" value="Project management&lt;br&gt;service" style="rounded=1;whiteSpace=wrap;html=1;fillColor=#ffe6cc;strokeColor=#d79b00;" parent="1" vertex="1">
          <mxGeometry x="-10" y="390" width="120" height="60" as="geometry" />
        </mxCell>
        <mxCell id="P8x03T3BTSU4HdCrfRKm-8" value="OAuth configuration&lt;br&gt;service" style="rounded=1;whiteSpace=wrap;html=1;fillColor=#dae8fc;strokeColor=#6c8ebf;" parent="1" vertex="1">
          <mxGeometry x="-10" y="530" width="120" height="60" as="geometry" />
        </mxCell>
        <mxCell id="P8x03T3BTSU4HdCrfRKm-11" style="edgeStyle=orthogonalEdgeStyle;rounded=0;orthogonalLoop=1;jettySize=auto;html=1;" parent="1" source="P8x03T3BTSU4HdCrfRKm-10" target="P8x03T3BTSU4HdCrfRKm-1" edge="1">
          <mxGeometry relative="1" as="geometry" />
        </mxCell>
        <mxCell id="P8x03T3BTSU4HdCrfRKm-10" value="web application" style="rounded=1;whiteSpace=wrap;html=1;fillColor=#f8cecc;strokeColor=#b85450;" parent="1" vertex="1">
          <mxGeometry x="390" y="440" width="120" height="60" as="geometry" />
        </mxCell>
        <mxCell id="P8x03T3BTSU4HdCrfRKm-17" value="Auth service" style="rounded=1;whiteSpace=wrap;html=1;fillColor=#d5e8d4;strokeColor=#82b366;" parent="1" vertex="1">
          <mxGeometry x="210" y="340" width="120" height="60" as="geometry" />
        </mxCell>
        <mxCell id="P8x03T3BTSU4HdCrfRKm-18" style="edgeStyle=orthogonalEdgeStyle;rounded=0;orthogonalLoop=1;jettySize=auto;html=1;entryX=0.553;entryY=1.038;entryDx=0;entryDy=0;entryPerimeter=0;curved=1;" parent="1" source="P8x03T3BTSU4HdCrfRKm-1" target="P8x03T3BTSU4HdCrfRKm-17" edge="1">
          <mxGeometry relative="1" as="geometry" />
        </mxCell>
        <mxCell id="P8x03T3BTSU4HdCrfRKm-20" value="oauth cache" style="shape=cylinder3;whiteSpace=wrap;html=1;boundedLbl=1;backgroundOutline=1;size=15;" parent="1" vertex="1">
          <mxGeometry x="-140" y="525" width="60" height="65" as="geometry" />
        </mxCell>
        <mxCell id="P8x03T3BTSU4HdCrfRKm-21" style="edgeStyle=orthogonalEdgeStyle;rounded=0;orthogonalLoop=1;jettySize=auto;html=1;entryX=1;entryY=0.5;entryDx=0;entryDy=0;entryPerimeter=0;curved=1;" parent="1" source="P8x03T3BTSU4HdCrfRKm-8" target="P8x03T3BTSU4HdCrfRKm-20" edge="1">
          <mxGeometry relative="1" as="geometry" />
        </mxCell>
        <mxCell id="P8x03T3BTSU4HdCrfRKm-22" style="edgeStyle=orthogonalEdgeStyle;rounded=0;orthogonalLoop=1;jettySize=auto;html=1;entryX=0.982;entryY=0.835;entryDx=0;entryDy=0;entryPerimeter=0;curved=1;" parent="1" source="P8x03T3BTSU4HdCrfRKm-7" target="P8x03T3BTSU4HdCrfRKm-19" edge="1">
          <mxGeometry relative="1" as="geometry" />
        </mxCell>
        <mxCell id="P8x03T3BTSU4HdCrfRKm-23" style="edgeStyle=orthogonalEdgeStyle;rounded=0;orthogonalLoop=1;jettySize=auto;html=1;entryX=1;entryY=0;entryDx=0;entryDy=27.5;entryPerimeter=0;curved=1;" parent="1" source="P8x03T3BTSU4HdCrfRKm-2" target="P8x03T3BTSU4HdCrfRKm-19" edge="1">
          <mxGeometry relative="1" as="geometry" />
        </mxCell>
        <mxCell id="P8x03T3BTSU4HdCrfRKm-24" value="Credentials" style="shape=cylinder3;whiteSpace=wrap;html=1;boundedLbl=1;backgroundOutline=1;size=15;fillColor=#d5e8d4;strokeColor=#82b366;" parent="1" vertex="1">
          <mxGeometry x="235" y="240" width="70" height="60" as="geometry" />
        </mxCell>
        <mxCell id="P8x03T3BTSU4HdCrfRKm-25" style="edgeStyle=orthogonalEdgeStyle;rounded=0;orthogonalLoop=1;jettySize=auto;html=1;entryX=0.5;entryY=1;entryDx=0;entryDy=0;entryPerimeter=0;curved=1;" parent="1" source="P8x03T3BTSU4HdCrfRKm-17" target="P8x03T3BTSU4HdCrfRKm-24" edge="1">
          <mxGeometry relative="1" as="geometry" />
        </mxCell>
        <mxCell id="P8x03T3BTSU4HdCrfRKm-36" value="DevOps" style="rhombus;whiteSpace=wrap;html=1;fillColor=#f8cecc;strokeColor=#b85450;" parent="1" vertex="1">
          <mxGeometry x="410" y="240" width="80" height="80" as="geometry" />
        </mxCell>
        <mxCell id="P8x03T3BTSU4HdCrfRKm-19" value="Data" style="shape=cylinder3;whiteSpace=wrap;html=1;boundedLbl=1;backgroundOutline=1;size=15;" parent="1" vertex="1">
          <mxGeometry x="-140" y="290" width="60" height="160" as="geometry" />
        </mxCell>
        <mxCell id="P8x03T3BTSU4HdCrfRKm-38" value="ADMINS" style="shape=parallelogram;perimeter=parallelogramPerimeter;whiteSpace=wrap;html=1;fixedSize=1;fillColor=#f5f5f5;strokeColor=#666666;fontColor=#333333;" parent="1" vertex="1">
          <mxGeometry x="210" y="150" width="120" height="60" as="geometry" />
        </mxCell>
        <mxCell id="P8x03T3BTSU4HdCrfRKm-39" value="USERS" style="shape=parallelogram;perimeter=parallelogramPerimeter;whiteSpace=wrap;html=1;fixedSize=1;fillColor=#f5f5f5;strokeColor=#666666;fontColor=#333333;" parent="1" vertex="1">
          <mxGeometry x="-290" y="290" width="120" height="60" as="geometry" />
        </mxCell>
        <mxCell id="dv437M6ORLYuPQRYhrlT-1" value="" style="rounded=0;whiteSpace=wrap;html=1;" parent="1" vertex="1">
          <mxGeometry x="-800" y="1200" width="2390" height="20" as="geometry" />
        </mxCell>
        <mxCell id="dv437M6ORLYuPQRYhrlT-2" value="" style="rounded=0;whiteSpace=wrap;html=1;" parent="1" vertex="1">
          <mxGeometry x="-480" y="880" width="20" height="1280" as="geometry" />
        </mxCell>
        <mxCell id="dv437M6ORLYuPQRYhrlT-3" value="Auth service" style="rounded=1;whiteSpace=wrap;html=1;fillColor=#d5e8d4;strokeColor=#82b366;" parent="1" vertex="1">
          <mxGeometry x="-220" y="980" width="120" height="60" as="geometry" />
        </mxCell>
        <mxCell id="dv437M6ORLYuPQRYhrlT-4" value="GateWay" style="shape=hexagon;perimeter=hexagonPerimeter2;whiteSpace=wrap;html=1;fixedSize=1;fillColor=#f8cecc;strokeColor=#b85450;" parent="1" vertex="1">
          <mxGeometry x="-150" y="1110" width="110" height="60" as="geometry" />
        </mxCell>
        <mxCell id="dv437M6ORLYuPQRYhrlT-5" value="Project management&lt;br&gt;service" style="rounded=1;whiteSpace=wrap;html=1;fillColor=#ffe6cc;strokeColor=#d79b00;" parent="1" vertex="1">
          <mxGeometry x="-310" y="1110" width="120" height="60" as="geometry" />
        </mxCell>
        <mxCell id="dv437M6ORLYuPQRYhrlT-6" value="MOCKS" style="shape=cylinder3;whiteSpace=wrap;html=1;boundedLbl=1;backgroundOutline=1;size=15;fillColor=#d5e8d4;strokeColor=#82b366;" parent="1" vertex="1">
          <mxGeometry x="-170" y="880" width="70" height="60" as="geometry" />
        </mxCell>
        <mxCell id="dv437M6ORLYuPQRYhrlT-7" value="MOCKS" style="shape=cylinder3;whiteSpace=wrap;html=1;boundedLbl=1;backgroundOutline=1;size=15;fillColor=#ffe6cc;strokeColor=#d79b00;" parent="1" vertex="1">
          <mxGeometry x="-425" y="1090" width="70" height="60" as="geometry" />
        </mxCell>
        <mxCell id="dv437M6ORLYuPQRYhrlT-8" style="edgeStyle=orthogonalEdgeStyle;rounded=0;orthogonalLoop=1;jettySize=auto;html=1;entryX=0.5;entryY=1;entryDx=0;entryDy=0;entryPerimeter=0;curved=1;strokeColor=#00d100;strokeWidth=2;" parent="1" source="dv437M6ORLYuPQRYhrlT-3" target="dv437M6ORLYuPQRYhrlT-6" edge="1">
          <mxGeometry relative="1" as="geometry" />
        </mxCell>
        <mxCell id="dv437M6ORLYuPQRYhrlT-9" style="edgeStyle=orthogonalEdgeStyle;rounded=0;orthogonalLoop=1;jettySize=auto;html=1;entryX=1;entryY=0.5;entryDx=0;entryDy=0;entryPerimeter=0;curved=1;strokeColor=#f5b400;strokeWidth=2;" parent="1" source="dv437M6ORLYuPQRYhrlT-5" target="dv437M6ORLYuPQRYhrlT-7" edge="1">
          <mxGeometry relative="1" as="geometry" />
        </mxCell>
        <mxCell id="dv437M6ORLYuPQRYhrlT-11" value="MOCKS" style="shape=cylinder3;whiteSpace=wrap;html=1;boundedLbl=1;backgroundOutline=1;size=15;fillColor=#f8cecc;strokeColor=#b85450;" parent="1" vertex="1">
          <mxGeometry x="15" y="1080" width="70" height="60" as="geometry" />
        </mxCell>
        <mxCell id="dv437M6ORLYuPQRYhrlT-12" style="edgeStyle=orthogonalEdgeStyle;rounded=0;orthogonalLoop=1;jettySize=auto;html=1;entryX=0;entryY=0;entryDx=0;entryDy=37.5;entryPerimeter=0;curved=1;strokeColor=#FF0505;strokeWidth=2;" parent="1" source="dv437M6ORLYuPQRYhrlT-4" target="dv437M6ORLYuPQRYhrlT-11" edge="1">
          <mxGeometry relative="1" as="geometry">
            <mxPoint y="1100" as="targetPoint" />
          </mxGeometry>
        </mxCell>
        <mxCell id="dv437M6ORLYuPQRYhrlT-14" value="Auth service" style="rounded=1;whiteSpace=wrap;html=1;" parent="1" vertex="1">
          <mxGeometry x="-220" y="1370" width="120" height="60" as="geometry" />
        </mxCell>
        <mxCell id="dv437M6ORLYuPQRYhrlT-15" value="GateWay" style="shape=hexagon;perimeter=hexagonPerimeter2;whiteSpace=wrap;html=1;fixedSize=1;" parent="1" vertex="1">
          <mxGeometry x="-95" y="1470" width="110" height="60" as="geometry" />
        </mxCell>
        <mxCell id="dv437M6ORLYuPQRYhrlT-16" value="Project management&lt;br&gt;service" style="rounded=1;whiteSpace=wrap;html=1;" parent="1" vertex="1">
          <mxGeometry x="-280" y="1470" width="120" height="60" as="geometry" />
        </mxCell>
        <mxCell id="dv437M6ORLYuPQRYhrlT-17" value="DB" style="shape=cylinder3;whiteSpace=wrap;html=1;boundedLbl=1;backgroundOutline=1;size=15;fillColor=#d5e8d4;strokeColor=#82b366;" parent="1" vertex="1">
          <mxGeometry x="-195" y="1260" width="70" height="60" as="geometry" />
        </mxCell>
        <mxCell id="dv437M6ORLYuPQRYhrlT-18" value="DB" style="shape=cylinder3;whiteSpace=wrap;html=1;boundedLbl=1;backgroundOutline=1;size=15;fillColor=#ffe6cc;strokeColor=#d79b00;" parent="1" vertex="1">
          <mxGeometry x="-415" y="1470" width="70" height="60" as="geometry" />
        </mxCell>
        <mxCell id="dv437M6ORLYuPQRYhrlT-25" style="edgeStyle=orthogonalEdgeStyle;rounded=0;orthogonalLoop=1;jettySize=auto;html=1;entryX=1;entryY=0.5;entryDx=0;entryDy=0;curved=1;strokeColor=#FF0505;strokeWidth=2;exitX=0.5;exitY=0;exitDx=0;exitDy=0;" parent="1" source="dv437M6ORLYuPQRYhrlT-15" target="dv437M6ORLYuPQRYhrlT-14" edge="1">
          <mxGeometry relative="1" as="geometry">
            <mxPoint x="44.5" y="1511" as="sourcePoint" />
            <mxPoint x="89.5" y="1509" as="targetPoint" />
          </mxGeometry>
        </mxCell>
        <mxCell id="dv437M6ORLYuPQRYhrlT-26" style="edgeStyle=orthogonalEdgeStyle;rounded=0;orthogonalLoop=1;jettySize=auto;html=1;entryX=1;entryY=0.5;entryDx=0;entryDy=0;curved=1;strokeColor=#FF0505;strokeWidth=2;exitX=0;exitY=0.5;exitDx=0;exitDy=0;" parent="1" source="dv437M6ORLYuPQRYhrlT-15" target="dv437M6ORLYuPQRYhrlT-16" edge="1">
          <mxGeometry relative="1" as="geometry">
            <mxPoint x="-107.75" y="1592" as="sourcePoint" />
            <mxPoint x="-62.75" y="1590" as="targetPoint" />
          </mxGeometry>
        </mxCell>
        <mxCell id="dv437M6ORLYuPQRYhrlT-28" style="edgeStyle=orthogonalEdgeStyle;rounded=0;orthogonalLoop=1;jettySize=auto;html=1;entryX=0.5;entryY=1;entryDx=0;entryDy=0;entryPerimeter=0;curved=1;strokeColor=#00d100;strokeWidth=2;exitX=0.5;exitY=0;exitDx=0;exitDy=0;" parent="1" source="dv437M6ORLYuPQRYhrlT-14" target="dv437M6ORLYuPQRYhrlT-17" edge="1">
          <mxGeometry relative="1" as="geometry">
            <mxPoint x="-65.52" y="1349.48" as="sourcePoint" />
            <mxPoint x="-40.519999999999996" y="1309.48" as="targetPoint" />
          </mxGeometry>
        </mxCell>
        <mxCell id="dv437M6ORLYuPQRYhrlT-30" style="edgeStyle=orthogonalEdgeStyle;rounded=0;orthogonalLoop=1;jettySize=auto;html=1;entryX=1;entryY=0.5;entryDx=0;entryDy=0;entryPerimeter=0;curved=1;strokeColor=#f5b400;strokeWidth=2;exitX=0;exitY=0.5;exitDx=0;exitDy=0;" parent="1" source="dv437M6ORLYuPQRYhrlT-16" target="dv437M6ORLYuPQRYhrlT-18" edge="1">
          <mxGeometry relative="1" as="geometry">
            <mxPoint x="-265" y="1460" as="sourcePoint" />
            <mxPoint x="-310" y="1440" as="targetPoint" />
          </mxGeometry>
        </mxCell>
      </root>
    </mxGraphModel>
  </diagram>
</mxfile>
